<?xml version="1.0" encoding="UTF-8" standalone="no"?>
<svg
   width="32"
   height="32"
   version="1.1"
   id="svg1"
   sodipodi:docname="icon.svg"
   inkscape:export-filename="icon.png"
   inkscape:export-xdpi="768"
   inkscape:export-ydpi="768"
   inkscape:version="1.3 (0e150ed6c4, 2023-07-21)"
   xmlns:inkscape="http://www.inkscape.org/namespaces/inkscape"
   xmlns:sodipodi="http://sodipodi.sourceforge.net/DTD/sodipodi-0.dtd"
   xmlns="http://www.w3.org/2000/svg"
   xmlns:svg="http://www.w3.org/2000/svg">
  <defs
     id="defs1" />
  <sodipodi:namedview
     id="namedview1"
     pagecolor="#ffffff"
     bordercolor="#000000"
     borderopacity="0.25"
     inkscape:showpageshadow="2"
     inkscape:pageopacity="0.0"
     inkscape:pagecheckerboard="0"
     inkscape:deskcolor="#d1d1d1"
     inkscape:zoom="16.75"
     inkscape:cx="16"
     inkscape:cy="16"
     inkscape:window-width="1366"
     inkscape:window-height="745"
     inkscape:window-x="-8"
     inkscape:window-y="-8"
     inkscape:window-maximized="1"
     inkscape:current-layer="svg1"
     inkscape:export-bgcolor="#00000000" />
  <path
     fill="#9DBD58"
     d="M25 22V7a3 3 0 00-3-3H7.5A3.5 3.5 0 004 7.5V10h5v15a3 3 0 003 3h12.5a3.5 3.5 0 003.5-3.5V22h-3zM9 8H6v-.5C6 6.673 6.673 6 7.5 6S9 6.673 9 7.5V8zm9.586 5L20 11.586l2.707 2.707a.999.999 0 010 1.414L20 18.414 18.586 17l2-2-2-2zm-6.293 2.707a.999.999 0 010-1.414L15 11.586 16.414 13l-2 2 2 2L15 18.414l-2.707-2.707zM26 24.5c0 .827-.673 1.5-1.5 1.5h-8.825c.203-.419.325-.915.325-1.5V24h10v.5z"
     id="path1"
     style="fill:#ffffff;fill-opacity:1;stroke:#000000;stroke-opacity:1;stroke-width:0.2;stroke-dasharray:none" />
</svg>
